<svg width="14" height="16" viewBox="0 0 14 16" fill="none" xmlns="http://www.w3.org/2000/svg">
<path d="M0.000162601 6.97612C0.020052 7.15919 0.0332308 7.34323 0.0607882 7.52487C0.186354 8.35399 0.435089 9.14213 0.851565 9.87324C0.886646 9.93318 0.927756 9.98939 0.974255 10.041C1.07274 10.1522 1.11108 10.1572 1.23425 10.0736C1.76935 9.71005 2.30684 9.35013 2.8369 8.97966C3.90836 8.2309 4.9775 7.47894 6.04433 6.72379C6.07117 6.70486 6.09753 6.68473 6.12317 6.66388C6.22166 6.58408 6.23628 6.51267 6.16726 6.40772C6.03331 6.20355 5.89936 5.99915 5.75989 5.79882C4.77949 4.39411 3.79813 2.99012 2.81581 1.58685C2.6507 1.3513 2.60613 1.34507 2.37776 1.52623C1.90498 1.90077 1.52492 2.36157 1.17482 2.84802C0.511051 3.76988 0.151369 4.80484 0.0373049 5.93013C0.0260425 6.04132 0.0133419 6.15227 -7.72476e-05 6.26322L0.000162601 6.97612Z" fill="#F6F6F7"/>
<path d="M6.83914 6.34783C7.61195 6.28672 8.34282 6.22969 9.07321 6.17074C9.66893 6.12281 10.2646 6.07489 10.8599 6.02241C11.5469 5.96058 12.2334 5.89325 12.9207 5.82543C13.105 5.80722 13.1618 5.72287 13.1323 5.52182C13.0541 4.96865 12.8938 4.43026 12.6566 3.92445C11.9236 2.37669 10.7842 1.23126 9.22058 0.523393C8.54698 0.218584 7.83073 0.0657005 7.09387 0.0165765C5.76991 -0.0720864 4.5224 0.193423 3.3638 0.849289C3.30334 0.883176 3.24551 0.921545 3.19078 0.964072C3.06114 1.0652 3.05036 1.12966 3.14286 1.26457C3.6075 1.93553 4.0707 2.60649 4.5399 3.27242C5.23147 4.2549 5.92855 5.23403 6.6206 6.21627C6.68985 6.30996 6.75527 6.38185 6.83914 6.34783Z" fill="#F6F6F7"/>
<path d="M6.83878 9.86339C6.83878 10.7584 6.83638 11.6537 6.84094 12.5487C6.84312 12.7136 6.85915 12.8781 6.88886 13.0404C6.91786 13.2067 6.98016 13.2431 7.14598 13.2201C7.82078 13.1264 8.48384 12.986 9.1179 12.7279C10.4406 12.1897 11.4663 11.2997 12.2225 10.0961C12.8973 9.02109 13.2232 7.84212 13.2275 6.57352C13.2275 6.33245 13.1595 6.262 12.9184 6.28165C12.2899 6.33389 11.662 6.39212 11.034 6.44747C10.4589 6.49812 9.88327 6.5482 9.3072 6.59772C8.5737 6.65955 7.83971 6.71754 7.10597 6.7796C6.94398 6.79326 6.8625 6.86922 6.85795 7.03001C6.84573 7.45559 6.83662 7.88166 6.83399 8.30748C6.82991 8.82604 6.83399 9.34459 6.83399 9.86315L6.83878 9.86339Z" fill="#F6F6F7"/>
<path d="M5.5323 11.9703C5.5323 11.0752 5.52918 10.18 5.53613 9.28497C5.53613 9.16515 5.46424 9.13089 5.39236 9.07793C5.32047 9.02497 5.26607 9.07625 5.21455 9.11148C4.69168 9.47092 4.16857 9.82725 3.64905 10.1898C2.73718 10.8272 1.82659 11.4668 0.917275 12.1085C0.822862 12.1749 0.731324 12.2458 0.642421 12.3196C0.530035 12.4131 0.518772 12.4653 0.606955 12.5796C0.713351 12.7179 0.828613 12.8502 0.947229 12.9784C1.7404 13.8343 2.71186 14.4094 3.81272 14.7689C4.28415 14.9223 4.77331 15.0145 5.26823 15.0433C5.43597 15.0531 5.47167 15.0217 5.48988 14.853C5.51068 14.6793 5.52251 14.5046 5.52535 14.3296C5.52894 13.5437 5.52703 12.7574 5.52703 11.9715L5.5323 11.9703Z" fill="#F6F6F7"/>
</svg>
