<svg width="21" height="21" viewBox="0 0 21 21" fill="none" xmlns="http://www.w3.org/2000/svg">
<path d="M0 4.14691C0.0277301 4.0036 0.0456443 3.85734 0.0849082 3.71722C0.241964 3.1582 0.558038 2.73562 1.13767 2.56728C1.28855 2.52507 1.44457 2.50409 1.60123 2.50495C3.0032 2.50102 4.40492 2.50372 5.80688 2.50274C5.84723 2.50084 5.8869 2.49161 5.92394 2.4755C7.84247 1.72621 9.76068 0.9757 11.6786 0.22396C11.8403 0.160647 12.002 0.0978242 12.1637 0.0340204C12.3522 -0.0395994 12.4827 0.00629042 12.5482 0.171444C12.6189 0.348623 12.5482 0.539543 12.3794 0.608255C12.0891 0.726047 11.7968 0.838685 11.5051 0.951814L5.24737 3.4009C4.46341 3.70798 3.67976 4.01464 2.89645 4.3209C2.70921 4.39452 2.57743 4.34544 2.51191 4.18053C2.44221 4.0036 2.51608 3.81243 2.68516 3.74544C3.03952 3.60458 3.3951 3.46716 3.75019 3.32826C3.90629 3.27044 4.05865 3.20299 4.20639 3.1263H1.65424C1.04933 3.1263 0.681719 3.42274 0.564173 4.01783C0.499633 4.34446 0.510921 4.6706 0.632639 4.98471C0.779879 5.36508 1.05546 5.58569 1.46552 5.62765C1.53681 5.63437 1.6084 5.6374 1.68 5.63673C6.97736 5.63673 12.2747 5.63673 17.5721 5.63673C17.6641 5.63341 17.7562 5.639 17.8472 5.65342C18.1858 5.72041 18.4175 5.99845 18.4607 6.38201C18.4704 6.47018 18.4752 6.55883 18.4751 6.64753C18.4761 7.84835 18.4761 9.04901 18.4751 10.2495C18.4758 10.2905 18.474 10.3315 18.4695 10.3722C18.4463 10.5574 18.3416 10.6502 18.1554 10.6505H15.1458C14.8346 10.6505 14.7777 10.7069 14.7777 11.0208C14.7777 12.0271 14.7777 13.0332 14.7777 14.0392C14.7777 14.0733 14.7777 14.1074 14.7794 14.1415C14.7932 14.3332 14.8656 14.4068 15.0565 14.4068C16.4551 14.408 17.8539 14.408 19.2528 14.4068C19.4567 14.4068 19.5272 14.3273 19.5274 14.1008C19.5292 13.2275 19.5292 12.3542 19.5274 11.4809C19.5274 11.0988 19.5262 10.717 19.5274 10.3349C19.5274 10.1204 19.4504 10.0225 19.2472 10.0174C19.096 10.0134 18.9892 9.85318 19.0032 9.68263C19.0177 9.50447 19.1372 9.38815 19.2977 9.3965C19.6886 9.41539 19.9689 9.67846 20.0339 10.0912C20.0474 10.1753 20.0545 10.2603 20.055 10.3455C20.0565 11.5906 20.0565 12.8357 20.055 14.0807C20.055 14.2033 20.0396 14.3255 20.0094 14.4444C19.9112 14.8228 19.6317 15.0333 19.2396 15.0333C18.0353 15.0333 16.8312 15.0333 15.6273 15.0333H15.0953C14.6305 15.0333 14.324 14.7634 14.2665 14.3006C14.2557 14.2126 14.2501 14.1241 14.2498 14.0355C14.2489 13.0292 14.2489 12.0231 14.2498 11.0171C14.2496 10.8945 14.2624 10.7722 14.2879 10.6522C14.376 10.2468 14.6611 10.0218 15.0759 10.0215C15.9901 10.0215 16.9043 10.0215 17.8184 10.0215H17.948V6.60508C17.9461 6.32876 17.8776 6.26005 17.6045 6.26005C12.3038 6.26005 7.00321 6.26087 1.70258 6.2625C1.26405 6.2625 0.873867 6.16017 0.539142 5.83943C0.535707 5.88189 0.53129 5.90986 0.53129 5.93759C0.53129 10.0102 0.53129 14.0831 0.53129 18.156C0.53129 18.475 0.586259 18.7811 0.783315 19.0444C0.955094 19.2736 1.18994 19.3906 1.4724 19.4154C1.54356 19.4216 1.61546 19.4213 1.68712 19.4213H17.5777C17.8906 19.4213 17.9478 19.3646 17.948 19.0532C17.948 18.0471 17.948 17.0409 17.948 16.0348C17.9469 15.9704 17.9556 15.9061 17.974 15.8444C17.9895 15.7933 18.0208 15.7485 18.0634 15.7164C18.106 15.6843 18.1577 15.6667 18.2111 15.666C18.2662 15.6674 18.3193 15.6866 18.3626 15.7207C18.4059 15.7548 18.437 15.802 18.4513 15.8552C18.4681 15.9141 18.4764 15.9752 18.4759 16.0365C18.4773 17.0495 18.4773 18.0626 18.4759 19.0758C18.4759 19.2753 18.4513 19.4711 18.3554 19.6503C18.2207 19.9028 18.0094 20.0375 17.7222 20.0503C17.6884 20.0517 17.6543 20.0517 17.6202 20.0517C12.2886 20.0517 6.95707 20.0517 1.62553 20.0517C1.11878 20.0517 0.70037 19.8765 0.388467 19.4716C0.170307 19.1884 0.0647855 18.8603 0.0203682 18.5099C0.0161964 18.4765 0.00711645 18.4439 0.000245265 18.4117L0 4.14691Z" fill="#F6F6F7"/>
<path d="M15.3201 2.93683C15.4126 3.26125 15.5017 3.568 15.5868 3.87598C15.6061 3.94076 15.6161 4.00791 15.6168 4.07549C15.6146 4.22273 15.5113 4.34224 15.3839 4.3577C15.2612 4.37267 15.1513 4.29316 15.1076 4.14764C15.0295 3.88678 14.9567 3.62444 14.8821 3.36236L14.4271 1.76137C14.4187 1.73217 14.4082 1.7037 14.3959 1.66591C14.1589 1.75082 13.9257 1.83401 13.6928 1.91794L7.03761 4.32285C6.84277 4.39328 6.70878 4.34199 6.64498 4.17316C6.577 3.99058 6.65823 3.80309 6.83663 3.73855C7.63025 3.45144 8.4242 3.16514 9.21848 2.87966L14.4236 0.999407C14.6369 0.922597 14.7596 0.983701 14.8249 1.20652C14.923 1.53978 15.0178 1.87376 15.1093 2.20849C15.1297 2.28211 15.1598 2.31058 15.2406 2.30959C15.6396 2.30493 16.0391 2.32235 16.4374 2.30395C17.0771 2.27426 17.39 2.79696 17.4114 3.21193C17.432 3.60972 17.418 4.00948 17.4178 4.40849C17.4168 4.4391 17.411 4.46935 17.4003 4.49807C17.3581 4.62224 17.2509 4.70297 17.1432 4.69438C17.0305 4.68506 16.9272 4.58494 16.9063 4.45905C16.8996 4.40838 16.8969 4.35726 16.8983 4.30616C16.8983 3.99573 16.9046 3.6853 16.8941 3.37536C16.891 3.27138 16.8612 3.16995 16.8075 3.08088C16.7655 3.01561 16.6688 2.95009 16.594 2.94739C16.2126 2.9334 15.8303 2.93978 15.4484 2.93929L15.3201 2.93683Z" fill="#F6F6F7"/>
<path d="M17.4185 12.5287C17.4143 12.716 17.3577 12.8829 17.2193 13.0156C17.034 13.1933 16.7756 13.1997 16.5812 13.0335C16.2934 12.7881 16.2931 12.2664 16.5812 12.0215C16.7758 11.8559 17.0355 11.8622 17.2193 12.0397C17.3574 12.1737 17.4148 12.3393 17.4185 12.5287Z" fill="#F6F6F7"/>
</svg>
