<svg width="17" height="17" viewBox="0 0 17 17" fill="none" xmlns="http://www.w3.org/2000/svg">
<path d="M3.57223 16.583C2.4398 16.0828 2.03005 15.1803 2.05378 13.984C2.0851 12.4639 2.06137 10.9426 2.06137 9.35324C1.72233 9.35324 1.42315 9.36842 1.12634 9.35039C0.173033 9.2925 -0.32426 8.44549 0.234009 7.67795C0.836645 6.84921 1.57594 6.11703 2.28036 5.36587C3.70391 3.84742 5.14597 2.34605 6.57735 0.834237C7.62627 -0.273523 8.75752 -0.280878 9.81379 0.829017C11.8085 2.92591 13.8 5.02564 15.7884 7.12823C15.9819 7.33227 16.1748 7.53686 16.3671 7.74201V8.85998C15.7865 9.35063 15.0833 9.41255 14.3362 9.36629C14.3362 10.9699 14.3148 12.5081 14.3431 14.0453C14.3649 15.2315 13.9297 16.1035 12.8127 16.5839H9.76705C9.76017 16.3984 9.74712 16.2126 9.74712 16.0268C9.74538 14.4023 9.74499 12.7777 9.74593 11.1531C9.74593 10.4325 9.70038 10.3872 8.96298 10.3855C8.42187 10.3844 7.88069 10.3844 7.33942 10.3855C6.75411 10.3882 6.66063 10.4805 6.6611 11.0572C6.6611 12.0725 6.6732 13.0877 6.66632 14.1029C6.66086 14.9298 6.63571 15.7566 6.61887 16.5832L3.57223 16.583ZM3.08063 8.31357V8.91241C3.08182 10.6897 3.08063 12.467 3.08562 14.2443C3.08799 14.9243 3.38124 15.4693 3.85908 15.5222C4.43562 15.586 5.02473 15.5374 5.63852 15.5374C5.63852 15.1141 5.63425 14.7428 5.63852 14.3715C5.65465 13.1539 5.63259 11.9337 5.70519 10.7194C5.76284 9.75586 6.26464 9.36035 7.24001 9.35537C7.89975 9.35205 8.55948 9.35316 9.21922 9.35869C10.112 9.36534 10.6079 9.73688 10.6831 10.6249C10.7716 11.667 10.7491 12.719 10.7661 13.7667C10.7759 14.3523 10.768 14.9381 10.768 15.5621H11.9401C12.9335 15.5621 13.3145 15.1855 13.3162 14.1905C13.3195 12.43 13.3204 10.6695 13.3188 8.90909C13.3188 8.72806 13.3188 8.54727 13.3188 8.30621H15.3528C15.1642 8.05092 15.065 7.88295 14.9345 7.7451C12.946 5.64394 10.9544 3.5457 8.95966 1.4504C8.44671 0.912532 7.94918 0.917277 7.43053 1.46202C5.43614 3.55749 3.44585 5.65675 1.45969 7.75981C1.33038 7.89671 1.23287 8.06374 1.04923 8.31357H3.08063Z" fill="white"/>
</svg>
