<svg width="18" height="20" viewBox="0 0 18 20" fill="none" xmlns="http://www.w3.org/2000/svg">
<path d="M17.5615 2.62053C16.9142 1.3903 15.7188 0.983182 14.5093 0.695004C10.5488 -0.251781 6.58 -0.251781 2.64019 0.821637C2.10544 0.973151 1.5916 1.19061 1.11054 1.469C0.122335 2.03115 -0.220873 2.89214 0.138905 3.98153C0.336689 4.56849 0.609575 5.12739 0.950771 5.64432C2.64236 8.22431 4.35368 10.7907 6.08471 13.3435C6.7232 14.2808 7.11671 15.2548 7.02795 16.4034C6.99836 16.7868 7.05694 17.1785 7.01611 17.5602C6.94392 18.2324 7.19955 18.6401 7.82976 18.9058C8.47653 19.1786 9.08306 19.5485 9.70735 19.8751L10.2955 19.6579C10.4003 19.3999 10.5204 19.1425 10.5322 18.8804C10.5737 17.9188 10.4648 16.9454 10.5677 15.9933C10.6465 15.2579 10.8576 14.5428 11.1908 13.8825C11.6382 13.0133 12.2702 12.241 12.798 11.4108C14.374 8.9342 15.9443 6.45343 17.5089 3.96851L17.5615 2.62053ZM15.1354 5.06442C15.181 5.05264 15.2292 5.05507 15.2734 5.0714C15.3176 5.08772 15.3557 5.11715 15.3828 5.15576C15.4098 5.19437 15.4244 5.24031 15.4246 5.28743C15.4248 5.33456 15.4106 5.38062 15.3839 5.41946C13.6833 7.97756 12.0323 10.4741 10.3541 12.9594C9.68948 13.9168 9.34123 15.0581 9.35822 16.2235C9.36296 16.7945 9.35822 17.3661 9.35822 17.9508C9.3579 17.9879 9.34868 18.0244 9.33133 18.0572C9.31398 18.09 9.28901 18.1182 9.25851 18.1393C9.22802 18.1605 9.19289 18.174 9.15608 18.1788C9.11927 18.1836 9.08185 18.1794 9.04697 18.1667C8.18954 17.8496 8.15344 17.7496 8.20906 16.7548C8.2996 15.1347 7.80313 13.7559 6.87824 12.4322C5.27758 10.1392 3.76154 7.78642 2.19402 5.4165C2.16716 5.37758 2.15288 5.33136 2.15309 5.28406C2.1533 5.23677 2.168 5.19068 2.19521 5.152C2.22242 5.11332 2.26083 5.0839 2.30526 5.06771C2.34969 5.05153 2.39802 5.04934 2.44373 5.06146C6.68001 6.16328 10.876 6.15736 15.1383 5.06442H15.1354ZM15.0466 2.09861C15.8236 2.36726 15.852 3.46021 15.0981 3.78093C14.8931 3.86877 14.6833 3.94503 14.4697 4.00934C11.8394 4.77861 9.13573 4.84666 6.43976 4.58156C5.02727 4.4425 3.63491 4.04899 2.25024 3.70105C1.9017 3.61347 1.59932 3.34068 1.28333 3.12173C1.25113 3.09941 1.22515 3.06927 1.20783 3.03414C1.1905 2.999 1.18241 2.96004 1.1843 2.92091C1.1862 2.88178 1.19802 2.84378 1.21865 2.81049C1.23929 2.77719 1.26807 2.7497 1.30227 2.73059C1.71944 2.4939 2.12242 2.1927 2.56978 2.09506C4.08937 1.76428 5.61901 1.41338 7.16346 1.27905C9.82629 1.04827 12.4743 1.21988 15.0336 2.0921L15.0466 2.09861Z" fill="#F6F6F7"/>
</svg>
