<svg width="16" height="16" viewBox="0 0 16 16" fill="none" xmlns="http://www.w3.org/2000/svg">
<path d="M7.99794 7.72825e-08C3.57742 7.72825e-08 0.00541244 3.58404 3.07923e-07 8.02259C-0.00120239 12.4329 3.5209 15.9682 7.92096 15.9658C12.4082 15.9658 15.967 12.4178 15.9688 7.94923C15.97 3.50827 12.4515 -0.000601271 7.99794 7.72825e-08ZM7.93359 14.4173C7.09301 14.4199 6.26025 14.2559 5.48342 13.9348C4.70658 13.6137 4.00106 13.1419 3.4076 12.5466C2.81414 11.9512 2.3445 11.2443 2.02582 10.4664C1.70713 9.6886 1.54571 8.85534 1.55088 8.01477C1.55088 4.43495 4.43254 1.54847 7.99553 1.54847C11.585 1.54847 14.4197 4.37481 14.4197 7.95584C14.4197 11.5579 11.5501 14.4173 7.93359 14.4173Z" fill="#F6F6F7"/>
<path d="M8.65463 10.1742H7.26011C7.13202 9.34312 7.27995 8.61428 7.88371 8.02676C8.20422 7.71467 8.55541 7.43263 8.89457 7.13978C9.49592 6.62141 9.64505 6.17762 9.39249 5.66347C9.14594 5.16374 8.47964 4.87089 7.83921 4.97372C7.02859 5.10421 6.60584 5.65445 6.32922 6.40012L4.86133 6.2137C5.03873 5.75788 5.12773 5.31649 5.35323 4.95929C6.50301 3.14021 9.51216 3.12217 10.713 4.90697C11.2747 5.74164 11.244 6.72545 10.5928 7.48796C10.3029 7.82712 9.96197 8.12479 9.62461 8.41884C8.817 9.12543 8.81279 9.11761 8.65463 10.1742Z" fill="#F6F6F7"/>
<path d="M8.79759 12.3841H7.22266V10.7791H8.79759V12.3841Z" fill="#F6F6F7"/>
</svg>
