<svg width="23" height="23" viewBox="0 0 23 23" fill="none" xmlns="http://www.w3.org/2000/svg">
<path d="M11.7896 0C11.9542 0.0186896 12.1196 0.0320028 12.2832 0.057349C13.0571 0.176399 13.6076 0.807239 13.6309 1.60731C13.6437 2.05842 13.6309 2.51107 13.6593 2.96116C13.7185 3.85391 14.5766 4.49729 15.4184 4.29478C15.7044 4.22616 15.9405 4.0682 16.1461 3.86363C16.3908 3.62041 16.6297 3.37079 16.8744 3.12757C17.1535 2.85107 17.4723 2.64958 17.8704 2.59607C18.1996 2.55178 18.5104 2.62167 18.7972 2.77324C19.3791 3.07709 19.8685 3.532 20.214 4.09021C20.5865 4.6847 20.5453 5.29352 20.1318 5.8601C19.9823 6.06492 19.7846 6.23389 19.6126 6.42335C19.4029 6.65377 19.1756 6.86985 18.9938 7.11973C18.5522 7.72676 18.6057 8.4362 19.1087 8.96616C19.4032 9.27646 19.7744 9.39423 20.1927 9.39782C20.5847 9.40089 20.9777 9.38681 21.3684 9.41164C22.0169 9.45235 22.531 9.7268 22.8139 10.3423C22.8688 10.4625 22.9075 10.5895 22.9291 10.7199C23.0241 11.2628 23.0236 11.818 22.9278 12.3608C22.7916 13.1032 22.2082 13.6186 21.4355 13.6767C21.1339 13.7002 20.831 13.7024 20.5292 13.6831C19.8466 13.6375 19.2795 13.8449 18.8476 14.3869C18.8328 14.4022 18.8169 14.4165 18.8002 14.4297C18.5954 14.2487 18.3786 14.0805 18.1883 13.8869C17.7403 13.4309 17.6279 12.8628 17.7111 12.254C17.8391 11.3234 17.8061 10.4065 17.5002 9.51456C16.8857 7.7224 15.696 6.44562 13.9709 5.68344C12.5963 5.07462 11.1703 5.07641 9.74089 5.45942C7.22495 6.13404 5.43152 8.27746 5.18676 10.8699C4.98834 12.9716 5.65272 14.7571 7.20242 16.1832C8.48945 17.3675 10.0325 17.9024 11.7852 17.8015C12.0907 17.7838 12.394 17.7311 12.6974 17.6883C13.0443 17.6394 13.3441 17.7242 13.604 17.9651C13.8723 18.2139 14.1501 18.4515 14.4233 18.6958L14.5221 18.7844C14.4745 18.8115 14.4358 18.8333 14.3977 18.8553C14.2392 18.9472 14.0789 19.036 13.923 19.1318C13.6882 19.2759 13.5784 19.4902 13.5856 19.7642C13.5925 20.0281 13.6112 20.2926 13.6038 20.556C13.5973 20.7432 13.5707 20.9291 13.5244 21.1106C13.4146 21.5404 13.1575 21.8574 12.7415 22.0274C12.0369 22.3149 11.3185 22.4306 10.5724 22.1897C10.0988 22.0361 9.75778 21.7512 9.57063 21.2783C9.38066 20.7977 9.22858 20.3179 9.30258 19.7887C9.32818 19.6095 9.30667 19.4234 9.29336 19.2414C9.28286 19.0975 9.19095 19.0171 9.05065 18.9815C8.78319 18.9132 8.51667 18.8415 8.25109 18.7662C7.73341 18.6182 7.28153 18.7357 6.89417 19.1021C6.60026 19.3804 6.31787 19.6707 6.0219 19.947C5.69394 20.2529 5.31272 20.4462 4.85419 20.4562C4.57054 20.4649 4.29237 20.3769 4.06538 20.2066C3.55684 19.8387 3.10938 19.393 2.73944 18.886C2.42172 18.4456 2.45218 17.9682 2.64241 17.4863C2.76453 17.1768 2.98599 16.9407 3.21871 16.7137C3.43224 16.5053 3.65216 16.3027 3.85672 16.0861C4.37568 15.5372 4.41459 14.7768 3.96067 14.1847C3.70644 13.8518 3.36055 13.6841 2.95091 13.6547C2.48777 13.6204 2.02258 13.6094 1.55994 13.5802C0.651833 13.5228 0.102409 12.9832 0.0212499 12.0784C0.0165272 12.0497 0.00941924 12.0214 0 11.9939L0 10.9954C0.00819272 10.9498 0.0186896 10.9045 0.0256022 10.8584C0.0919121 10.3387 0.301338 9.90295 0.759875 9.61646C1.03817 9.44262 1.34873 9.36735 1.67157 9.35788C2.10681 9.34508 2.54205 9.36172 2.97447 9.3292C3.74254 9.27185 4.29529 8.65177 4.29478 7.88063C4.29478 7.49224 4.13015 7.17221 3.86645 6.89904C3.56742 6.58925 3.2607 6.28714 2.965 5.97454C2.72971 5.72569 2.59812 5.42281 2.55536 5.08358C2.4998 4.62914 2.66391 4.23871 2.91866 3.87669C3.1967 3.48293 3.54489 3.15676 3.93046 2.87206C4.19442 2.67206 4.51513 2.56116 4.84625 2.55536C5.34575 2.54691 5.75154 2.76146 6.10332 3.09608C6.36881 3.34877 6.62637 3.60966 6.8934 3.86056C7.23775 4.18392 7.63843 4.34342 8.11898 4.2702C8.74317 4.17393 9.21988 3.74305 9.32229 3.1588C9.34789 3.00519 9.34303 2.84492 9.34789 2.68772C9.36146 2.30036 9.35788 1.91172 9.3886 1.52564C9.44876 0.768067 9.97259 0.202258 10.7225 0.068102C10.8976 0.0368672 11.0758 0.022274 11.2524 0H11.7896Z" fill="#F6F6F7"/>
<path d="M10.3442 6.99351C10.8456 6.84463 11.3672 6.77551 11.8901 6.78869C13.7846 6.8399 16.0282 8.53221 16.2455 11.033C16.3044 11.71 16.2181 12.3672 16.0105 13.0113C15.9936 13.0641 15.9775 13.1171 15.9593 13.169C15.8543 13.456 15.9165 13.7044 16.1321 13.9171C16.3233 14.1057 16.5144 14.2942 16.7056 14.4827C17.8672 15.6294 19.0318 16.7731 20.1875 17.9264C20.3752 18.1113 20.5371 18.3207 20.6688 18.5488C20.9179 18.99 20.8992 19.447 20.6494 19.8894C20.4639 20.2192 20.186 20.4874 19.8498 20.661C19.2937 20.9539 18.6511 20.8599 18.1539 20.3794C17.2709 19.5271 16.4019 18.6602 15.5304 17.7961C15.0402 17.3097 14.5576 16.8173 14.0711 16.3278C14.035 16.2915 13.9969 16.2572 13.9613 16.2206C13.7053 15.9563 13.4062 15.8995 13.0591 16.006C12.7828 16.0905 12.504 16.1752 12.2206 16.2272C10.6417 16.516 9.30501 16.0283 8.16468 14.9356C7.40481 14.2075 6.92221 13.3316 6.76834 12.284C6.68685 11.709 6.70208 11.1245 6.8134 10.5545C6.82569 10.49 6.91888 10.4316 6.98698 10.3922C7.00823 10.3799 7.07889 10.4311 7.1132 10.4665C7.64598 11.0182 8.17083 11.5779 8.70975 12.1237C9.08585 12.5047 9.53645 12.7689 10.071 12.8603C10.835 12.9908 11.4822 12.7387 12.0388 12.2251C12.4362 11.8587 12.728 11.423 12.8338 10.8843C12.9574 10.2537 12.8048 9.67509 12.4264 9.16894C12.2009 8.8676 11.9236 8.60389 11.6596 8.33251C11.2679 7.92927 10.8673 7.53474 10.4709 7.1356C10.431 7.09874 10.3975 7.05496 10.3442 6.99351ZM20.0011 19.2058C19.995 18.6456 19.6399 18.3965 19.1859 18.4039C18.6949 18.4116 18.3907 18.7209 18.3769 19.2145C18.3651 19.6303 18.7533 19.9995 19.19 20.0023C19.2958 20.004 19.4008 19.9846 19.499 19.9454C19.5972 19.9062 19.6866 19.8478 19.7621 19.7738C19.8375 19.6997 19.8975 19.6113 19.9386 19.5139C19.9796 19.4164 20.0009 19.3118 20.0011 19.206V19.2058Z" fill="#F6F6F7"/>
</svg>
